<mxfile host="app.diagrams.net" agent="Mozilla/5.0 (Windows NT 10.0; Win64; x64) AppleWebKit/537.36 (KHTML, like Gecko) Chrome/131.0.0.0 Safari/537.36" version="24.9.1" pages="5">
  <diagram name="Página-1" id="H8jlvOOQOQW4P7mihlmR">
    <mxGraphModel dx="794" dy="446" grid="1" gridSize="10" guides="1" tooltips="1" connect="1" arrows="1" fold="1" page="1" pageScale="1" pageWidth="827" pageHeight="1169" math="0" shadow="0">
      <root>
        <mxCell id="0" />
        <mxCell id="1" parent="0" />
        <mxCell id="ZNDgKBdRZQI9wkvJ1fDN-5" value="&lt;font style=&quot;vertical-align: inherit;&quot;&gt;&lt;font style=&quot;vertical-align: inherit;&quot;&gt;MOTO&lt;/font&gt;&lt;/font&gt;" style="rounded=0;whiteSpace=wrap;html=1;" vertex="1" parent="1">
          <mxGeometry x="270" y="40" width="180" height="40" as="geometry" />
        </mxCell>
        <mxCell id="ZNDgKBdRZQI9wkvJ1fDN-11" value="&lt;font style=&quot;vertical-align: inherit;&quot;&gt;&lt;font style=&quot;vertical-align: inherit;&quot;&gt;COLOR NEGRO&lt;/font&gt;&lt;/font&gt;" style="rounded=0;whiteSpace=wrap;html=1;" vertex="1" parent="1">
          <mxGeometry x="270" y="80" width="180" height="80" as="geometry" />
        </mxCell>
        <mxCell id="ZNDgKBdRZQI9wkvJ1fDN-13" style="edgeStyle=orthogonalEdgeStyle;rounded=0;orthogonalLoop=1;jettySize=auto;html=1;entryX=1;entryY=0;entryDx=0;entryDy=0;" edge="1" parent="1">
          <mxGeometry relative="1" as="geometry">
            <mxPoint x="280" y="310" as="targetPoint" />
            <mxPoint x="310" y="230" as="sourcePoint" />
            <Array as="points">
              <mxPoint x="310" y="270" />
              <mxPoint x="281" y="270" />
            </Array>
          </mxGeometry>
        </mxCell>
        <mxCell id="ZNDgKBdRZQI9wkvJ1fDN-12" value="&lt;font style=&quot;vertical-align: inherit;&quot;&gt;&lt;font style=&quot;vertical-align: inherit;&quot;&gt;TRANSPORTA&lt;/font&gt;&lt;/font&gt;&lt;div&gt;&lt;font style=&quot;vertical-align: inherit;&quot;&gt;&lt;font style=&quot;vertical-align: inherit;&quot;&gt;&lt;font style=&quot;vertical-align: inherit;&quot;&gt;&lt;font style=&quot;vertical-align: inherit;&quot;&gt;CORRE&lt;/font&gt;&lt;/font&gt;&lt;/font&gt;&lt;/font&gt;&lt;/div&gt;" style="rounded=0;whiteSpace=wrap;html=1;" vertex="1" parent="1">
          <mxGeometry x="270" y="160" width="180" height="70" as="geometry" />
        </mxCell>
        <mxCell id="ZNDgKBdRZQI9wkvJ1fDN-14" value="&lt;font style=&quot;vertical-align: inherit;&quot;&gt;&lt;font style=&quot;vertical-align: inherit;&quot;&gt;YAMAHA&lt;/font&gt;&lt;/font&gt;" style="rounded=0;whiteSpace=wrap;html=1;" vertex="1" parent="1">
          <mxGeometry x="180" y="310" width="180" height="50" as="geometry" />
        </mxCell>
        <mxCell id="ZNDgKBdRZQI9wkvJ1fDN-15" value="&lt;font style=&quot;vertical-align: inherit;&quot;&gt;&lt;font style=&quot;vertical-align: inherit;&quot;&gt;300 CC&lt;/font&gt;&lt;/font&gt;" style="rounded=0;whiteSpace=wrap;html=1;" vertex="1" parent="1">
          <mxGeometry x="180" y="360" width="180" height="60" as="geometry" />
        </mxCell>
        <mxCell id="ZNDgKBdRZQI9wkvJ1fDN-16" value="" style="rounded=0;whiteSpace=wrap;html=1;" vertex="1" parent="1">
          <mxGeometry x="180" y="420" width="180" height="60" as="geometry" />
        </mxCell>
        <mxCell id="ZNDgKBdRZQI9wkvJ1fDN-17" value="&lt;font style=&quot;vertical-align: inherit;&quot;&gt;&lt;font style=&quot;vertical-align: inherit;&quot;&gt;SUZUKI&lt;/font&gt;&lt;/font&gt;" style="rounded=0;whiteSpace=wrap;html=1;" vertex="1" parent="1">
          <mxGeometry x="430" y="310" width="180" height="50" as="geometry" />
        </mxCell>
        <mxCell id="ZNDgKBdRZQI9wkvJ1fDN-18" value="&lt;font style=&quot;vertical-align: inherit;&quot;&gt;&lt;font style=&quot;vertical-align: inherit;&quot;&gt;250 CC&lt;/font&gt;&lt;/font&gt;" style="rounded=0;whiteSpace=wrap;html=1;" vertex="1" parent="1">
          <mxGeometry x="430" y="360" width="180" height="60" as="geometry" />
        </mxCell>
        <mxCell id="ZNDgKBdRZQI9wkvJ1fDN-19" value="" style="rounded=0;whiteSpace=wrap;html=1;" vertex="1" parent="1">
          <mxGeometry x="430" y="420" width="180" height="60" as="geometry" />
        </mxCell>
        <mxCell id="ZNDgKBdRZQI9wkvJ1fDN-20" value="" style="endArrow=none;html=1;rounded=0;exitX=0.456;exitY=0.013;exitDx=0;exitDy=0;exitPerimeter=0;" edge="1" parent="1" source="ZNDgKBdRZQI9wkvJ1fDN-17">
          <mxGeometry width="50" height="50" relative="1" as="geometry">
            <mxPoint x="510" y="300" as="sourcePoint" />
            <mxPoint x="439" y="230" as="targetPoint" />
            <Array as="points">
              <mxPoint x="510" y="280" />
            </Array>
          </mxGeometry>
        </mxCell>
      </root>
    </mxGraphModel>
  </diagram>
  <diagram id="wL_SQJiPaLCsdT2YmAp6" name="Página-2">
    <mxGraphModel dx="794" dy="446" grid="1" gridSize="10" guides="1" tooltips="1" connect="1" arrows="1" fold="1" page="1" pageScale="1" pageWidth="827" pageHeight="1169" math="0" shadow="0">
      <root>
        <mxCell id="0" />
        <mxCell id="1" parent="0" />
        <mxCell id="eIKBd44Z_ZJCODi4lCeH-1" value="CARROS" style="rounded=0;whiteSpace=wrap;html=1;" vertex="1" parent="1">
          <mxGeometry x="270" y="40" width="180" height="40" as="geometry" />
        </mxCell>
        <mxCell id="eIKBd44Z_ZJCODi4lCeH-2" value="COLOR ROJO&amp;nbsp;&lt;div&gt;4 PUERTAS&lt;/div&gt;" style="rounded=0;whiteSpace=wrap;html=1;" vertex="1" parent="1">
          <mxGeometry x="270" y="80" width="180" height="80" as="geometry" />
        </mxCell>
        <mxCell id="eIKBd44Z_ZJCODi4lCeH-3" style="edgeStyle=orthogonalEdgeStyle;rounded=0;orthogonalLoop=1;jettySize=auto;html=1;entryX=1;entryY=0;entryDx=0;entryDy=0;" edge="1" parent="1">
          <mxGeometry relative="1" as="geometry">
            <mxPoint x="280" y="310" as="targetPoint" />
            <mxPoint x="310" y="230" as="sourcePoint" />
            <Array as="points">
              <mxPoint x="310" y="270" />
              <mxPoint x="281" y="270" />
            </Array>
          </mxGeometry>
        </mxCell>
        <mxCell id="eIKBd44Z_ZJCODi4lCeH-4" value="&lt;font style=&quot;vertical-align: inherit;&quot;&gt;&lt;font style=&quot;vertical-align: inherit;&quot;&gt;TRANSPORTA&lt;/font&gt;&lt;/font&gt;&lt;div&gt;&lt;font style=&quot;vertical-align: inherit;&quot;&gt;&lt;font style=&quot;vertical-align: inherit;&quot;&gt;&lt;font style=&quot;vertical-align: inherit;&quot;&gt;&lt;font style=&quot;vertical-align: inherit;&quot;&gt;CORRE&lt;/font&gt;&lt;/font&gt;&lt;/font&gt;&lt;/font&gt;&lt;/div&gt;" style="rounded=0;whiteSpace=wrap;html=1;" vertex="1" parent="1">
          <mxGeometry x="270" y="160" width="180" height="70" as="geometry" />
        </mxCell>
        <mxCell id="eIKBd44Z_ZJCODi4lCeH-5" value="CHEVROLET ACTIVA" style="rounded=0;whiteSpace=wrap;html=1;" vertex="1" parent="1">
          <mxGeometry x="180" y="310" width="180" height="50" as="geometry" />
        </mxCell>
        <mxCell id="eIKBd44Z_ZJCODi4lCeH-6" value="GRANDE" style="rounded=0;whiteSpace=wrap;html=1;" vertex="1" parent="1">
          <mxGeometry x="180" y="360" width="180" height="60" as="geometry" />
        </mxCell>
        <mxCell id="eIKBd44Z_ZJCODi4lCeH-7" value="TODO TERRENO" style="rounded=0;whiteSpace=wrap;html=1;" vertex="1" parent="1">
          <mxGeometry x="180" y="420" width="180" height="60" as="geometry" />
        </mxCell>
        <mxCell id="eIKBd44Z_ZJCODi4lCeH-8" value="KIA PICANTO" style="rounded=0;whiteSpace=wrap;html=1;" vertex="1" parent="1">
          <mxGeometry x="430" y="310" width="180" height="50" as="geometry" />
        </mxCell>
        <mxCell id="eIKBd44Z_ZJCODi4lCeH-9" value="PEQUEÑO" style="rounded=0;whiteSpace=wrap;html=1;" vertex="1" parent="1">
          <mxGeometry x="430" y="360" width="180" height="60" as="geometry" />
        </mxCell>
        <mxCell id="eIKBd44Z_ZJCODi4lCeH-10" value="PARA CIUDAD" style="rounded=0;whiteSpace=wrap;html=1;" vertex="1" parent="1">
          <mxGeometry x="430" y="420" width="180" height="60" as="geometry" />
        </mxCell>
        <mxCell id="eIKBd44Z_ZJCODi4lCeH-11" value="" style="endArrow=none;html=1;rounded=0;exitX=0.456;exitY=0.013;exitDx=0;exitDy=0;exitPerimeter=0;" edge="1" parent="1" source="eIKBd44Z_ZJCODi4lCeH-8">
          <mxGeometry width="50" height="50" relative="1" as="geometry">
            <mxPoint x="510" y="300" as="sourcePoint" />
            <mxPoint x="439" y="230" as="targetPoint" />
            <Array as="points">
              <mxPoint x="510" y="280" />
            </Array>
          </mxGeometry>
        </mxCell>
      </root>
    </mxGraphModel>
  </diagram>
  <diagram id="eqZs8QUrCHVxLdTJcohT" name="Página-3">
    <mxGraphModel dx="794" dy="446" grid="1" gridSize="10" guides="1" tooltips="1" connect="1" arrows="1" fold="1" page="1" pageScale="1" pageWidth="827" pageHeight="1169" math="0" shadow="0">
      <root>
        <mxCell id="0" />
        <mxCell id="1" parent="0" />
        <mxCell id="W0BWVENN7PG54V4CuoMm-1" value="CELULAR" style="rounded=0;whiteSpace=wrap;html=1;" vertex="1" parent="1">
          <mxGeometry x="270" y="40" width="180" height="40" as="geometry" />
        </mxCell>
        <mxCell id="W0BWVENN7PG54V4CuoMm-2" value="COLOR NEGRO&amp;nbsp;&lt;div&gt;PANTALLA TACTIL&amp;nbsp;&lt;/div&gt;&lt;div&gt;CUADRADO&lt;/div&gt;" style="rounded=0;whiteSpace=wrap;html=1;" vertex="1" parent="1">
          <mxGeometry x="270" y="80" width="180" height="80" as="geometry" />
        </mxCell>
        <mxCell id="W0BWVENN7PG54V4CuoMm-3" style="edgeStyle=orthogonalEdgeStyle;rounded=0;orthogonalLoop=1;jettySize=auto;html=1;entryX=1;entryY=0;entryDx=0;entryDy=0;" edge="1" parent="1">
          <mxGeometry relative="1" as="geometry">
            <mxPoint x="280" y="310" as="targetPoint" />
            <mxPoint x="310" y="230" as="sourcePoint" />
            <Array as="points">
              <mxPoint x="310" y="270" />
              <mxPoint x="281" y="270" />
            </Array>
          </mxGeometry>
        </mxCell>
        <mxCell id="W0BWVENN7PG54V4CuoMm-4" value="COMUNICA&amp;nbsp;&lt;div&gt;LINTERNA&amp;nbsp;&lt;/div&gt;&lt;div&gt;NAVEGA EN INTERNET&lt;/div&gt;" style="rounded=0;whiteSpace=wrap;html=1;" vertex="1" parent="1">
          <mxGeometry x="270" y="160" width="180" height="70" as="geometry" />
        </mxCell>
        <mxCell id="W0BWVENN7PG54V4CuoMm-5" value="SAMSUNG A24" style="rounded=0;whiteSpace=wrap;html=1;" vertex="1" parent="1">
          <mxGeometry x="180" y="310" width="180" height="50" as="geometry" />
        </mxCell>
        <mxCell id="W0BWVENN7PG54V4CuoMm-6" value="GRANDE&lt;div&gt;PESADO&lt;/div&gt;" style="rounded=0;whiteSpace=wrap;html=1;" vertex="1" parent="1">
          <mxGeometry x="180" y="360" width="180" height="60" as="geometry" />
        </mxCell>
        <mxCell id="W0BWVENN7PG54V4CuoMm-7" value="ASISTENTE EY GOOGLE" style="rounded=0;whiteSpace=wrap;html=1;" vertex="1" parent="1">
          <mxGeometry x="180" y="420" width="180" height="60" as="geometry" />
        </mxCell>
        <mxCell id="W0BWVENN7PG54V4CuoMm-8" value="IPHONE 13" style="rounded=0;whiteSpace=wrap;html=1;" vertex="1" parent="1">
          <mxGeometry x="430" y="310" width="180" height="50" as="geometry" />
        </mxCell>
        <mxCell id="W0BWVENN7PG54V4CuoMm-9" value="MEDIANO&amp;nbsp;&lt;div&gt;LIVIANO&lt;/div&gt;" style="rounded=0;whiteSpace=wrap;html=1;" vertex="1" parent="1">
          <mxGeometry x="430" y="360" width="180" height="60" as="geometry" />
        </mxCell>
        <mxCell id="W0BWVENN7PG54V4CuoMm-10" value="ASISTENTE EY SIRI" style="rounded=0;whiteSpace=wrap;html=1;" vertex="1" parent="1">
          <mxGeometry x="430" y="420" width="180" height="60" as="geometry" />
        </mxCell>
        <mxCell id="W0BWVENN7PG54V4CuoMm-11" value="" style="endArrow=none;html=1;rounded=0;exitX=0.456;exitY=0.013;exitDx=0;exitDy=0;exitPerimeter=0;" edge="1" parent="1" source="W0BWVENN7PG54V4CuoMm-8">
          <mxGeometry width="50" height="50" relative="1" as="geometry">
            <mxPoint x="510" y="300" as="sourcePoint" />
            <mxPoint x="439" y="230" as="targetPoint" />
            <Array as="points">
              <mxPoint x="510" y="280" />
            </Array>
          </mxGeometry>
        </mxCell>
      </root>
    </mxGraphModel>
  </diagram>
  <diagram id="aYUwqDzcFKaNsKH6mbHn" name="Página-4">
    <mxGraphModel dx="794" dy="446" grid="1" gridSize="10" guides="1" tooltips="1" connect="1" arrows="1" fold="1" page="1" pageScale="1" pageWidth="827" pageHeight="1169" math="0" shadow="0">
      <root>
        <mxCell id="0" />
        <mxCell id="1" parent="0" />
        <mxCell id="4Z2JBdWwE7xvtwUYh_be-1" value="LIBRO" style="rounded=0;whiteSpace=wrap;html=1;" vertex="1" parent="1">
          <mxGeometry x="270" y="40" width="180" height="40" as="geometry" />
        </mxCell>
        <mxCell id="4Z2JBdWwE7xvtwUYh_be-2" value="BENITO PEREZ GALDOS" style="rounded=0;whiteSpace=wrap;html=1;" vertex="1" parent="1">
          <mxGeometry x="270" y="80" width="180" height="80" as="geometry" />
        </mxCell>
        <mxCell id="4Z2JBdWwE7xvtwUYh_be-3" style="edgeStyle=orthogonalEdgeStyle;rounded=0;orthogonalLoop=1;jettySize=auto;html=1;entryX=1;entryY=0;entryDx=0;entryDy=0;" edge="1" parent="1">
          <mxGeometry relative="1" as="geometry">
            <mxPoint x="280" y="310" as="targetPoint" />
            <mxPoint x="310" y="230" as="sourcePoint" />
            <Array as="points">
              <mxPoint x="310" y="270" />
              <mxPoint x="281" y="270" />
            </Array>
          </mxGeometry>
        </mxCell>
        <mxCell id="4Z2JBdWwE7xvtwUYh_be-4" value="PRESTAR&amp;nbsp;&lt;div&gt;LEER&amp;nbsp;&lt;/div&gt;&lt;div&gt;DEVOLVER&lt;/div&gt;" style="rounded=0;whiteSpace=wrap;html=1;" vertex="1" parent="1">
          <mxGeometry x="270" y="160" width="180" height="70" as="geometry" />
        </mxCell>
        <mxCell id="4Z2JBdWwE7xvtwUYh_be-5" value="MARIANELA" style="rounded=0;whiteSpace=wrap;html=1;" vertex="1" parent="1">
          <mxGeometry x="180" y="310" width="180" height="50" as="geometry" />
        </mxCell>
        <mxCell id="4Z2JBdWwE7xvtwUYh_be-6" value="ESCRITO EN 1878" style="rounded=0;whiteSpace=wrap;html=1;" vertex="1" parent="1">
          <mxGeometry x="180" y="360" width="180" height="60" as="geometry" />
        </mxCell>
        <mxCell id="4Z2JBdWwE7xvtwUYh_be-7" value="" style="rounded=0;whiteSpace=wrap;html=1;" vertex="1" parent="1">
          <mxGeometry x="180" y="420" width="180" height="60" as="geometry" />
        </mxCell>
        <mxCell id="4Z2JBdWwE7xvtwUYh_be-8" value="DOÑA PERFECTA" style="rounded=0;whiteSpace=wrap;html=1;" vertex="1" parent="1">
          <mxGeometry x="430" y="310" width="180" height="50" as="geometry" />
        </mxCell>
        <mxCell id="4Z2JBdWwE7xvtwUYh_be-9" value="ESCRITO EN 1876" style="rounded=0;whiteSpace=wrap;html=1;" vertex="1" parent="1">
          <mxGeometry x="430" y="360" width="180" height="60" as="geometry" />
        </mxCell>
        <mxCell id="4Z2JBdWwE7xvtwUYh_be-10" value="" style="rounded=0;whiteSpace=wrap;html=1;" vertex="1" parent="1">
          <mxGeometry x="430" y="420" width="180" height="60" as="geometry" />
        </mxCell>
        <mxCell id="4Z2JBdWwE7xvtwUYh_be-11" value="" style="endArrow=none;html=1;rounded=0;exitX=0.456;exitY=0.013;exitDx=0;exitDy=0;exitPerimeter=0;" edge="1" parent="1" source="4Z2JBdWwE7xvtwUYh_be-8">
          <mxGeometry width="50" height="50" relative="1" as="geometry">
            <mxPoint x="510" y="300" as="sourcePoint" />
            <mxPoint x="439" y="230" as="targetPoint" />
            <Array as="points">
              <mxPoint x="510" y="280" />
            </Array>
          </mxGeometry>
        </mxCell>
      </root>
    </mxGraphModel>
  </diagram>
  <diagram id="zL8yJC1BT1aXJDbxRSeG" name="Página-5">
    <mxGraphModel dx="794" dy="446" grid="1" gridSize="10" guides="1" tooltips="1" connect="1" arrows="1" fold="1" page="1" pageScale="1" pageWidth="827" pageHeight="1169" math="0" shadow="0">
      <root>
        <mxCell id="0" />
        <mxCell id="1" parent="0" />
        <mxCell id="1dTzUb-6E0MeoRsyOZOh-1" value="PAN" style="rounded=0;whiteSpace=wrap;html=1;" vertex="1" parent="1">
          <mxGeometry x="270" y="40" width="180" height="40" as="geometry" />
        </mxCell>
        <mxCell id="1dTzUb-6E0MeoRsyOZOh-2" value="COLOR&amp;nbsp;&lt;div&gt;TEXTURA&lt;/div&gt;" style="rounded=0;whiteSpace=wrap;html=1;" vertex="1" parent="1">
          <mxGeometry x="270" y="80" width="180" height="80" as="geometry" />
        </mxCell>
        <mxCell id="1dTzUb-6E0MeoRsyOZOh-3" style="edgeStyle=orthogonalEdgeStyle;rounded=0;orthogonalLoop=1;jettySize=auto;html=1;entryX=1;entryY=0;entryDx=0;entryDy=0;" edge="1" parent="1">
          <mxGeometry relative="1" as="geometry">
            <mxPoint x="280" y="310" as="targetPoint" />
            <mxPoint x="310" y="230" as="sourcePoint" />
            <Array as="points">
              <mxPoint x="310" y="270" />
              <mxPoint x="281" y="270" />
            </Array>
          </mxGeometry>
        </mxCell>
        <mxCell id="1dTzUb-6E0MeoRsyOZOh-4" value="" style="rounded=0;whiteSpace=wrap;html=1;" vertex="1" parent="1">
          <mxGeometry x="270" y="160" width="180" height="70" as="geometry" />
        </mxCell>
        <mxCell id="1dTzUb-6E0MeoRsyOZOh-5" value="PAN DE CHOCOLATE" style="rounded=0;whiteSpace=wrap;html=1;" vertex="1" parent="1">
          <mxGeometry x="180" y="310" width="180" height="50" as="geometry" />
        </mxCell>
        <mxCell id="1dTzUb-6E0MeoRsyOZOh-6" value="SABOR DULCE" style="rounded=0;whiteSpace=wrap;html=1;" vertex="1" parent="1">
          <mxGeometry x="180" y="360" width="180" height="60" as="geometry" />
        </mxCell>
        <mxCell id="1dTzUb-6E0MeoRsyOZOh-7" value="" style="rounded=0;whiteSpace=wrap;html=1;" vertex="1" parent="1">
          <mxGeometry x="180" y="420" width="180" height="60" as="geometry" />
        </mxCell>
        <mxCell id="1dTzUb-6E0MeoRsyOZOh-8" value="PAN DE AGUA" style="rounded=0;whiteSpace=wrap;html=1;" vertex="1" parent="1">
          <mxGeometry x="430" y="310" width="180" height="50" as="geometry" />
        </mxCell>
        <mxCell id="1dTzUb-6E0MeoRsyOZOh-9" value="SABOR INSIPIDO&amp;nbsp;" style="rounded=0;whiteSpace=wrap;html=1;" vertex="1" parent="1">
          <mxGeometry x="430" y="360" width="180" height="60" as="geometry" />
        </mxCell>
        <mxCell id="1dTzUb-6E0MeoRsyOZOh-10" value="" style="rounded=0;whiteSpace=wrap;html=1;" vertex="1" parent="1">
          <mxGeometry x="430" y="420" width="180" height="60" as="geometry" />
        </mxCell>
        <mxCell id="1dTzUb-6E0MeoRsyOZOh-11" value="" style="endArrow=none;html=1;rounded=0;exitX=0.456;exitY=0.013;exitDx=0;exitDy=0;exitPerimeter=0;" edge="1" parent="1" source="1dTzUb-6E0MeoRsyOZOh-8">
          <mxGeometry width="50" height="50" relative="1" as="geometry">
            <mxPoint x="510" y="300" as="sourcePoint" />
            <mxPoint x="439" y="230" as="targetPoint" />
            <Array as="points">
              <mxPoint x="510" y="280" />
            </Array>
          </mxGeometry>
        </mxCell>
      </root>
    </mxGraphModel>
  </diagram>
</mxfile>
